<svg width="300" height="300" viewBox="0 0 300 300" fill="none" xmlns="http://www.w3.org/2000/svg">
<path d="M0 300L21.1881 222.962C8.11354 200.412 1.24341 174.85 1.25597 148.637C1.29364 66.6875 68.2994 0 150.628 0C190.58 0.0125 228.083 15.5 256.292 43.6C284.489 71.7 300.013 109.05 300 148.775C299.962 230.738 232.957 297.425 150.628 297.425C125.634 297.413 101.005 291.175 79.1886 279.325L0 300ZM82.8561 252.413C103.906 264.85 124.001 272.3 150.578 272.312C219.003 272.312 274.743 216.888 274.78 148.75C274.805 80.475 219.329 25.125 150.678 25.1C82.2029 25.1 26.5009 80.525 26.4758 148.65C26.4632 176.463 34.6521 197.287 48.4049 219.075L35.8578 264.675L82.8561 252.413ZM225.873 184.113C224.943 182.563 222.457 181.637 218.714 179.775C214.984 177.912 196.634 168.925 193.205 167.688C189.789 166.45 187.302 165.825 184.803 169.55C182.316 173.263 175.157 181.638 172.984 184.113C170.811 186.588 168.626 186.9 164.896 185.038C161.166 183.175 149.133 179.263 134.878 166.6C123.788 156.75 116.29 144.588 114.117 140.863C111.944 137.15 113.891 135.138 115.75 133.288C117.433 131.625 119.48 128.95 121.351 126.775C123.248 124.625 123.863 123.075 125.119 120.588C126.363 118.113 125.747 115.938 124.805 114.075C123.863 112.225 116.403 93.9375 113.301 86.5C110.261 79.2625 107.184 80.2375 104.898 80.125L97.7393 80C95.2525 80 91.2082 80.925 87.792 84.65C84.3758 88.375 74.73 97.35 74.73 115.638C74.73 133.925 88.106 151.588 89.9648 154.062C91.8362 156.537 116.277 194.063 153.718 210.15C162.622 213.975 169.581 216.262 174.994 217.975C183.936 220.8 192.075 220.4 198.505 219.45C205.677 218.387 220.585 210.462 223.7 201.787C226.815 193.1 226.815 185.663 225.873 184.113Z" fill="#fff"/>
</svg>
