<svg  width="169" height="103" viewBox="0 0 169 103" fill="none" xmlns="http://www.w3.org/2000/svg">
                    <path d="M76.704 102L54.528 102L32.928 63.984L20.4 63.984L20.4 102L0.24 102L0.24 1.19999L54.816 1.19999L71.52 10.848L71.52 54.336L54.816 63.984L76.704 102ZM20.4 18.48L20.4 46.704L51.36 46.704L51.36 18.48L20.4 18.48ZM132.006 66.72L132.006 49.44L168.726 49.44L168.726 93.072L152.022 102.72L111.27 102.72L94.5656 93.072L94.5656 10.128L111.27 0.479994L152.022 0.479994L168.726 10.128L168.726 30.72L148.566 30.72L148.566 17.76L114.726 17.76L114.726 85.44L148.566 85.44L148.566 66.72L132.006 66.72Z" fill="#000"/>
                    </svg>