<svg width="173" height="107" viewBox="0 0 173 107" fill="none" xmlns="http://www.w3.org/2000/svg">
<path d="M78.704 104L56.528 104L34.928 65.984L22.4 65.984L22.4 104L2.24 104L2.24 3.19999L56.816 3.19999L73.52 12.848L73.52 56.336L56.816 65.984L78.704 104ZM22.4 20.48L22.4 48.704L53.36 48.704L53.36 20.48L22.4 20.48ZM134.006 68.72L134.006 51.44L170.726 51.44L170.726 95.072L154.022 104.72L113.27 104.72L96.5656 95.072L96.5656 12.128L113.27 2.47999L154.022 2.47999L170.726 12.128L170.726 32.72L150.566 32.72L150.566 19.76L116.726 19.76L116.726 87.44L150.566 87.44L150.566 68.72L134.006 68.72Z" fill="white"/>
<path d="M78.704 104L78.704 106L82.1633 106L80.4373 103.002L78.704 104ZM56.528 104L54.7891 104.988L55.3641 106L56.528 106L56.528 104ZM34.928 65.984L36.6669 64.996L36.0919 63.984L34.928 63.984L34.928 65.984ZM22.4 65.984L22.4 63.984L20.4 63.984L20.4 65.984L22.4 65.984ZM22.4 104L22.4 106L24.4 106L24.4 104L22.4 104ZM2.24 104L0.24 104L0.24 106L2.24 106L2.24 104ZM2.24 3.19999L2.24 1.19999L0.24 1.19999L0.24 3.19999L2.24 3.19999ZM56.816 3.19999L57.8163 1.46812L57.3521 1.19999L56.816 1.19999L56.816 3.19999ZM73.52 12.848L75.52 12.848L75.52 11.6935L74.5203 11.1161L73.52 12.848ZM73.52 56.336L74.5203 58.0679L75.52 57.4905L75.52 56.336L73.52 56.336ZM56.816 65.984L55.8157 64.2521L54.0862 65.2511L55.0828 66.9819L56.816 65.984ZM22.4 20.48L22.4 18.48L20.4 18.48L20.4 20.48L22.4 20.48ZM22.4 48.704L20.4 48.704L20.4 50.704L22.4 50.704L22.4 48.704ZM53.36 48.704L53.36 50.704L55.36 50.704L55.36 48.704L53.36 48.704ZM53.36 20.48L55.36 20.48L55.36 18.48L53.36 18.48L53.36 20.48ZM78.704 102L56.528 102L56.528 106L78.704 106L78.704 102ZM58.2669 103.012L36.6669 64.996L33.1891 66.972L54.7891 104.988L58.2669 103.012ZM34.928 63.984L22.4 63.984L22.4 67.984L34.928 67.984L34.928 63.984ZM20.4 65.984L20.4 104L24.4 104L24.4 65.984L20.4 65.984ZM22.4 102L2.24 102L2.24 106L22.4 106L22.4 102ZM4.24 104L4.24 3.19999L0.24 3.19999L0.24 104L4.24 104ZM2.24 5.19999L56.816 5.19999L56.816 1.19999L2.24 1.19999L2.24 5.19999ZM55.8157 4.93187L72.5197 14.5799L74.5203 11.1161L57.8163 1.46812L55.8157 4.93187ZM71.52 12.848L71.52 56.336L75.52 56.336L75.52 12.848L71.52 12.848ZM72.5197 54.6041L55.8157 64.2521L57.8163 67.7159L74.5203 58.0679L72.5197 54.6041ZM55.0828 66.9819L76.9708 104.998L80.4373 103.002L58.5492 64.9861L55.0828 66.9819ZM20.4 20.48L20.4 48.704L24.4 48.704L24.4 20.48L20.4 20.48ZM22.4 50.704L53.36 50.704L53.36 46.704L22.4 46.704L22.4 50.704ZM55.36 48.704L55.36 20.48L51.36 20.48L51.36 48.704L55.36 48.704ZM53.36 18.48L22.4 18.48L22.4 22.48L53.36 22.48L53.36 18.48ZM134.006 68.72L132.006 68.72L132.006 70.72L134.006 70.72L134.006 68.72ZM134.006 51.44L134.006 49.44L132.006 49.44L132.006 51.44L134.006 51.44ZM170.726 51.44L172.726 51.44L172.726 49.44L170.726 49.44L170.726 51.44ZM170.726 95.072L171.726 96.8039L172.726 96.2265L172.726 95.072L170.726 95.072ZM154.022 104.72L154.022 106.72L154.558 106.72L155.022 106.452L154.022 104.72ZM113.27 104.72L112.269 106.452L112.734 106.72L113.27 106.72L113.27 104.72ZM96.5656 95.072L94.5656 95.072L94.5656 96.2265L95.5653 96.8039L96.5656 95.072ZM96.5656 12.128L95.5653 10.3961L94.5656 10.9735L94.5656 12.128L96.5656 12.128ZM113.27 2.47999L113.27 0.479994L112.734 0.479994L112.269 0.74812L113.27 2.47999ZM154.022 2.47999L155.022 0.74812L154.558 0.479994L154.022 0.479994L154.022 2.47999ZM170.726 12.128L172.726 12.128L172.726 10.9735L171.726 10.3961L170.726 12.128ZM170.726 32.72L170.726 34.72L172.726 34.72L172.726 32.72L170.726 32.72ZM150.566 32.72L148.566 32.72L148.566 34.72L150.566 34.72L150.566 32.72ZM150.566 19.76L152.566 19.76L152.566 17.76L150.566 17.76L150.566 19.76ZM116.726 19.76L116.726 17.76L114.726 17.76L114.726 19.76L116.726 19.76ZM116.726 87.44L114.726 87.44L114.726 89.44L116.726 89.44L116.726 87.44ZM150.566 87.44L150.566 89.44L152.566 89.44L152.566 87.44L150.566 87.44ZM150.566 68.72L152.566 68.72L152.566 66.72L150.566 66.72L150.566 68.72ZM136.006 68.72L136.006 51.44L132.006 51.44L132.006 68.72L136.006 68.72ZM134.006 53.44L170.726 53.44L170.726 49.44L134.006 49.44L134.006 53.44ZM168.726 51.44L168.726 95.072L172.726 95.072L172.726 51.44L168.726 51.44ZM169.725 93.3401L153.021 102.988L155.022 106.452L171.726 96.8039L169.725 93.3401ZM154.022 102.72L113.27 102.72L113.27 106.72L154.022 106.72L154.022 102.72ZM114.27 102.988L97.5659 93.3401L95.5653 96.8039L112.269 106.452L114.27 102.988ZM98.5656 95.072L98.5656 12.128L94.5656 12.128L94.5656 95.072L98.5656 95.072ZM97.5659 13.8599L114.27 4.21187L112.269 0.74812L95.5653 10.3961L97.5659 13.8599ZM113.27 4.47999L154.022 4.47999L154.022 0.479994L113.27 0.479994L113.27 4.47999ZM153.021 4.21187L169.725 13.8599L171.726 10.3961L155.022 0.74812L153.021 4.21187ZM168.726 12.128L168.726 32.72L172.726 32.72L172.726 12.128L168.726 12.128ZM170.726 30.72L150.566 30.72L150.566 34.72L170.726 34.72L170.726 30.72ZM152.566 32.72L152.566 19.76L148.566 19.76L148.566 32.72L152.566 32.72ZM150.566 17.76L116.726 17.76L116.726 21.76L150.566 21.76L150.566 17.76ZM114.726 19.76L114.726 87.44L118.726 87.44L118.726 19.76L114.726 19.76ZM116.726 89.44L150.566 89.44L150.566 85.44L116.726 85.44L116.726 89.44ZM152.566 87.44L152.566 68.72L148.566 68.72L148.566 87.44L152.566 87.44ZM150.566 66.72L134.006 66.72L134.006 70.72L150.566 70.72L150.566 66.72Z" fill="black"/>
</svg>

