
            <svg width="300" height="300" viewBox="0 0 300 300" fill="none" xmlns="http://www.w3.org/2000/svg">
                    <path d="M150 27.0375C190.05 27.0375 194.8 27.1875 210.625 27.9125C251.275 29.7625 270.262 49.05 272.112 89.4C272.837 105.213 272.975 109.963 272.975 150.013C272.975 190.075 272.825 194.812 272.112 210.625C270.25 250.938 251.312 270.262 210.625 272.112C194.8 272.837 190.075 272.988 150 272.988C109.95 272.988 105.2 272.837 89.3875 272.112C48.6375 270.25 29.75 250.875 27.9 210.613C27.175 194.8 27.025 190.062 27.025 150C27.025 109.95 27.1875 105.212 27.9 89.3875C29.7625 49.05 48.7 29.75 89.3875 27.9C105.212 27.1875 109.95 27.0375 150 27.0375ZM150 0C109.263 0 104.162 0.175 88.1625 0.9C33.6875 3.4 3.4125 33.625 0.9125 88.15C0.175 104.163 0 109.263 0 150C0 190.737 0.175 195.85 0.9 211.85C3.4 266.325 33.625 296.6 88.15 299.1C104.163 299.825 109.263 300 150 300C190.737 300 195.85 299.825 211.85 299.1C266.275 296.6 296.625 266.375 299.087 211.85C299.825 195.85 300 190.737 300 150C300 109.263 299.825 104.162 299.1 88.1625C296.65 33.7375 266.387 3.4125 211.862 0.9125C195.85 0.175 190.737 0 150 0ZM150 72.975C107.462 72.975 72.975 107.462 72.975 150C72.975 192.538 107.462 227.038 150 227.038C192.538 227.038 227.025 192.55 227.025 150C227.025 107.462 192.538 72.975 150 72.975ZM150 200C122.387 200 100 177.625 100 150C100 122.387 122.387 100 150 100C177.613 100 200 122.387 200 150C200 177.625 177.613 200 150 200ZM230.075 51.9375C220.125 51.9375 212.062 60 212.062 69.9375C212.062 79.875 220.125 87.9375 230.075 87.9375C240.012 87.9375 248.062 79.875 248.062 69.9375C248.062 60 240.012 51.9375 230.075 51.9375Z" fill="#FFE600"/>
                    <path d="M150 27.0375C190.05 27.0375 194.8 27.1875 210.625 27.9125C251.275 29.7625 270.262 49.05 272.112 89.4C272.837 105.213 272.975 109.963 272.975 150.013C272.975 190.075 272.825 194.812 272.112 210.625C270.25 250.938 251.312 270.262 210.625 272.112C194.8 272.837 190.075 272.988 150 272.988C109.95 272.988 105.2 272.837 89.3875 272.112C48.6375 270.25 29.75 250.875 27.9 210.613C27.175 194.8 27.025 190.062 27.025 150C27.025 109.95 27.1875 105.212 27.9 89.3875C29.7625 49.05 48.7 29.75 89.3875 27.9C105.212 27.1875 109.95 27.0375 150 27.0375ZM150 0C109.263 0 104.162 0.175 88.1625 0.9C33.6875 3.4 3.4125 33.625 0.9125 88.15C0.175 104.163 0 109.263 0 150C0 190.737 0.175 195.85 0.9 211.85C3.4 266.325 33.625 296.6 88.15 299.1C104.163 299.825 109.263 300 150 300C190.737 300 195.85 299.825 211.85 299.1C266.275 296.6 296.625 266.375 299.087 211.85C299.825 195.85 300 190.737 300 150C300 109.263 299.825 104.162 299.1 88.1625C296.65 33.7375 266.387 3.4125 211.862 0.9125C195.85 0.175 190.737 0 150 0ZM150 72.975C107.462 72.975 72.975 107.462 72.975 150C72.975 192.538 107.462 227.038 150 227.038C192.538 227.038 227.025 192.55 227.025 150C227.025 107.462 192.538 72.975 150 72.975ZM150 200C122.387 200 100 177.625 100 150C100 122.387 122.387 100 150 100C177.613 100 200 122.387 200 150C200 177.625 177.613 200 150 200ZM230.075 51.9375C220.125 51.9375 212.062 60 212.062 69.9375C212.062 79.875 220.125 87.9375 230.075 87.9375C240.012 87.9375 248.062 79.875 248.062 69.9375C248.062 60 240.012 51.9375 230.075 51.9375Z" fill="url(#paint0_linear)"/>
                    <path d="M150 27.0375C190.05 27.0375 194.8 27.1875 210.625 27.9125C251.275 29.7625 270.262 49.05 272.112 89.4C272.837 105.213 272.975 109.963 272.975 150.013C272.975 190.075 272.825 194.812 272.112 210.625C270.25 250.938 251.312 270.262 210.625 272.112C194.8 272.837 190.075 272.988 150 272.988C109.95 272.988 105.2 272.837 89.3875 272.112C48.6375 270.25 29.75 250.875 27.9 210.613C27.175 194.8 27.025 190.062 27.025 150C27.025 109.95 27.1875 105.212 27.9 89.3875C29.7625 49.05 48.7 29.75 89.3875 27.9C105.212 27.1875 109.95 27.0375 150 27.0375ZM150 0C109.263 0 104.162 0.175 88.1625 0.9C33.6875 3.4 3.4125 33.625 0.9125 88.15C0.175 104.163 0 109.263 0 150C0 190.737 0.175 195.85 0.9 211.85C3.4 266.325 33.625 296.6 88.15 299.1C104.163 299.825 109.263 300 150 300C190.737 300 195.85 299.825 211.85 299.1C266.275 296.6 296.625 266.375 299.087 211.85C299.825 195.85 300 190.737 300 150C300 109.263 299.825 104.162 299.1 88.1625C296.65 33.7375 266.387 3.4125 211.862 0.9125C195.85 0.175 190.737 0 150 0ZM150 72.975C107.462 72.975 72.975 107.462 72.975 150C72.975 192.538 107.462 227.038 150 227.038C192.538 227.038 227.025 192.55 227.025 150C227.025 107.462 192.538 72.975 150 72.975ZM150 200C122.387 200 100 177.625 100 150C100 122.387 122.387 100 150 100C177.613 100 200 122.387 200 150C200 177.625 177.613 200 150 200ZM230.075 51.9375C220.125 51.9375 212.062 60 212.062 69.9375C212.062 79.875 220.125 87.9375 230.075 87.9375C240.012 87.9375 248.062 79.875 248.062 69.9375C248.062 60 240.012 51.9375 230.075 51.9375Z" fill="url(#paint1_linear)"/>
                    <defs>
                    <linearGradient id="paint0_linear" x1="271" y1="33" x2="37" y2="258" gradientUnits="userSpaceOnUse">
                    <stop offset="0.719361" stop-color="#FF0000"/>
                    <stop offset="1" stop-color="white" stop-opacity="0"/>
                    </linearGradient>
                    <linearGradient id="paint1_linear" x1="263" y1="34" x2="40" y2="270" gradientUnits="userSpaceOnUse">
                    <stop offset="0.367693" stop-color="#5F008C"/>
                    <stop offset="0.568319" stop-color="white" stop-opacity="0"/>
                    </linearGradient>
                    </defs>
                    </svg>